# xmcd
#
# Track frame offsets: 
#        150
#        25012
#        49542
#        66185
#        87210
#        103007
#        120377
#        155557
#        182640
#        199915
#        222502
#        240427
#        267532
#        293150
#
# Disc length: 4111 seconds
#
# Revision: 0
# Processed by: cddbd v1.4PL0 Copyright (c) Steve Scherf et al.
# Submitted via: ExactAudioCopy v0.95a2
#
DISCID=c5100d0e
DTITLE=D.J. ROGERS - Golden Classics
DYEAR=1900
DGENRE=
TTITLE0=LOVE BROUGHT ME BACK
TTITLE1=WHEN LOVE IS GONE
TTITLE2=YESTERDAY NEVER RETURNS
TTITLE3=SOLD ON YOU
TTITLE4=YOU TAKE ME HIGHER ( BRAZILIAN LOVER)
TTITLE5=ALL MY LOVE
TTITLE6=TRUST ME
TTITLE7=LOVE CYCLES
TTITLE8=IN LOVE AGAIN, STANDING ON THE EDGE OF PARADISE
TTITLE9=NEVER HAD A REASON TO DANCE 'TIL NOW
TTITLE10=YOU CAN HAVE IT FOR A SONG
TTITLE11=YOUR LOVE KEEPS ME SATISFIED
TTITLE12=SAY YOU LOVE ME
TTITLE13=LET MY LIFE SHINE
EXTD=
EXTT0=
EXTT1=
EXTT2=
EXTT3=
EXTT4=
EXTT5=
EXTT6=
EXTT7=
EXTT8=
EXTT9=
EXTT10=
EXTT11=
EXTT12=
EXTT13=
PLAYORDER=
